<svg width="200" height="200" viewBox="0 0 200 200" fill="none" xmlns="http://www.w3.org/2000/svg">
<path fill-rule="evenodd" clip-rule="evenodd" d="M0 200L200 200L200 0L0 0L0 200Z" fill="#3854A3"/>
<path fill-rule="evenodd" clip-rule="evenodd" d="M100.829 33.9155L100.829 78.4918C88.494 78.4918 78.4588 88.4728 78.4588 100.74C78.4588 113.009 88.494 122.989 100.829 122.989L100.829 167.565C64.0117 167.565 34.0587 137.588 34.0587 100.74C34.0587 63.8933 64.0117 33.9155 100.829 33.9155" fill="#003C67"/>
<path fill-rule="evenodd" clip-rule="evenodd" d="M100.829 167.566L100.829 122.99C113.163 122.99 123.198 113.008 123.198 100.74C123.198 88.4726 113.163 78.4916 100.829 78.4916L100.829 33.916C137.647 33.916 167.599 63.8931 167.599 100.74C167.599 137.588 137.647 167.566 100.829 167.566" fill="#0D82CF"/>
</svg>
