<svg width="1200" height="457" viewBox="0 0 1200 457" fill="none" xmlns="http://www.w3.org/2000/svg">
<path fill-rule="evenodd" clip-rule="evenodd" d="M270.705 475.07L558.318 419.164L502.255 130.748L214.643 186.654L270.705 475.07Z" fill="#FFCC00"/>
<path fill-rule="evenodd" clip-rule="evenodd" d="M500.899 380.222C490.596 327.218 439.451 292.564 386.66 302.826C333.87 313.087 299.431 364.377 309.734 417.381L500.899 380.222Z" fill="#F28529"/>
<path fill-rule="evenodd" clip-rule="evenodd" d="M329.235 264.104C331.815 277.379 323.187 290.225 309.962 292.796C296.732 295.367 283.92 286.689 281.34 273.414C278.76 260.14 287.388 247.294 300.617 244.723C313.843 242.152 326.655 250.831 329.235 264.104Z" fill="#FFFDE3"/>
<path fill-rule="evenodd" clip-rule="evenodd" d="M472.901 236.178C475.481 249.453 466.853 262.299 453.626 264.87C440.398 267.442 427.586 258.763 425.005 245.488C422.425 232.215 431.054 219.368 444.282 216.797C457.508 214.226 470.321 222.905 472.901 236.178Z" fill="#FFFDE3"/>
<path fill-rule="evenodd" clip-rule="evenodd" d="M1056.72 424.696L1342.21 358.785L1276.16 72.6997L990.674 138.61L1056.72 424.696Z" fill="#009EEB"/>
<path fill-rule="evenodd" clip-rule="evenodd" d="M1200.31 391.434L1342.19 358.678L1276.24 73.0279L1134.36 105.784L1200.31 391.434Z" fill="#0FB5CC"/>
<path fill-rule="evenodd" clip-rule="evenodd" d="M1055.83 425.258L1342.26 359.129L1167.21 248.289L990.17 138.844L1055.83 425.258Z" fill="#003C67"/>
<path fill-rule="evenodd" clip-rule="evenodd" d="M-110.135 286.451L175.953 352.5L241.924 66.7485L-44.1646 0.699707L-110.135 286.451Z" fill="#E0334F"/>
<path fill-rule="evenodd" clip-rule="evenodd" d="M33.1836 319.539L175.355 352.362L241.326 66.6104L99.1545 33.7876L33.1836 319.539Z" fill="#5C2E5E"/>
<path fill-rule="evenodd" clip-rule="evenodd" d="M161.438 198.806C149.26 251.556 96.6161 284.444 43.8491 272.261C-8.91398 260.08 -41.8135 207.443 -29.6353 154.694C-17.4569 101.943 35.1874 69.0558 87.9506 81.2372C140.718 93.4194 173.616 146.056 161.438 198.806Z" fill="#99127D"/>
<path fill-rule="evenodd" clip-rule="evenodd" d="M43.9548 272.489C96.6351 284.651 149.212 251.758 161.387 199.022C173.562 146.286 140.725 93.6744 88.0452 81.5122L43.9548 272.489Z" fill="#FF329B"/>
<path fill-rule="evenodd" clip-rule="evenodd" d="M610.652 484.25L898.545 540.211L954.643 251.614L666.75 195.653L610.652 484.25Z" fill="#ADEB5E"/>
<path fill-rule="evenodd" clip-rule="evenodd" d="M610.682 484.094L898.576 540.055L926.625 395.756L638.731 339.795L610.682 484.094Z" fill="#87E51A"/>
<path fill-rule="evenodd" clip-rule="evenodd" d="M686.331 348.911L750.49 361.572C746.987 379.322 758.502 396.598 776.16 400.082C793.816 403.567 811.032 391.962 814.534 374.213L878.693 386.875C868.237 439.854 816.584 474.439 763.55 463.973C710.516 453.506 675.875 401.89 686.331 348.911Z" fill="#87B553"/>
<path fill-rule="evenodd" clip-rule="evenodd" d="M878.687 386.9L814.529 374.238C818.032 356.488 806.517 339.213 788.859 335.728C771.203 332.243 753.988 343.849 750.485 361.598L686.326 348.936C696.782 295.957 748.434 261.371 801.469 271.838C854.503 282.304 889.143 333.92 878.687 386.9Z" fill="#347222"/>
</svg>
