<svg width="32" height="32" viewBox="0 0 32 32" fill="none" xmlns="http://www.w3.org/2000/svg">
<mask id="mask0" mask-type="alpha" maskUnits="userSpaceOnUse" x="0" y="0" width="32" height="32">
<path fill-rule="evenodd" clip-rule="evenodd" d="M0 0.163086H31.9211V31.9249H0V0.163086Z" fill="white"/>
</mask>
<g mask="url(#mask0)">
<path fill-rule="evenodd" clip-rule="evenodd" d="M15.9607 31.9249C24.7757 31.9249 31.9213 24.8142 31.9213 16.0437C31.9213 7.27231 24.7757 0.163086 15.9607 0.163086C7.14547 0.163086 0 7.27231 0 16.0437C0 24.8142 7.14547 31.9249 15.9607 31.9249Z" fill="#87E51A"/>
</g>
<path fill-rule="evenodd" clip-rule="evenodd" d="M7.95483 16.0498C7.95483 20.4392 11.531 23.998 15.9429 23.998C20.3542 23.998 23.931 20.4392 23.931 16.0498H7.95483Z" fill="#347222"/>
<path fill-rule="evenodd" clip-rule="evenodd" d="M11.9517 12.0586C11.9517 13.1573 11.0573 14.0488 9.95312 14.0488C8.84961 14.0488 7.95459 13.1573 7.95459 12.0586C7.95459 10.9598 8.84961 10.0684 9.95312 10.0684C11.0573 10.0684 11.9517 10.9598 11.9517 12.0586Z" fill="#E3F7FF"/>
<path fill-rule="evenodd" clip-rule="evenodd" d="M23.9308 12.0586C23.9308 13.1573 23.0363 14.0488 21.9323 14.0488C20.8288 14.0488 19.9336 13.1573 19.9336 12.0586C19.9336 10.9598 20.8288 10.0684 21.9323 10.0684C23.0363 10.0684 23.9308 10.9598 23.9308 12.0586Z" fill="#E3F7FF"/>
</svg>
