<svg width="92" height="92" viewBox="0 0 92 92" fill="none" xmlns="http://www.w3.org/2000/svg">
<path fill-rule="evenodd" clip-rule="evenodd" d="M80.6454 0L0.000400543 10.913L10.9144 91.563L91.5584 80.649L80.6454 0Z" fill="#009EEB"/>
<path fill-rule="evenodd" clip-rule="evenodd" d="M29.7379 27.6413C30.2579 31.3443 27.6779 34.7643 23.9799 35.2833C20.2829 35.8024 16.8579 33.2243 16.3389 29.5263C15.8189 25.8233 18.3979 22.4043 22.0949 21.8803C25.7979 21.3593 29.2169 23.9393 29.7379 27.6413Z" fill="white"/>
<path fill-rule="evenodd" clip-rule="evenodd" d="M69.9244 21.9932C70.4444 25.6962 67.8644 29.1152 64.1664 29.6352C60.4694 30.1542 57.0444 27.5762 56.5254 23.8782C56.0054 20.1752 58.5834 16.7512 62.2814 16.2312C65.9844 15.7112 69.4034 18.2902 69.9244 21.9932Z" fill="white"/>
<path fill-rule="evenodd" clip-rule="evenodd" d="M59.3267 43.981C60.3627 51.358 55.2097 58.202 47.8377 59.237C40.4657 60.273 33.6257 55.114 32.5897 47.737L19.1677 49.625C21.2467 64.43 34.9297 74.742 49.7257 72.664C64.5207 70.581 74.8287 56.899 72.7487 42.094L59.3267 43.981Z" fill="#003C67"/>
</svg>
