<svg width="92" height="92" viewBox="0 0 92 92" fill="none" xmlns="http://www.w3.org/2000/svg">
<path fill-rule="evenodd" clip-rule="evenodd" d="M11.1672 -0.000488281L0.000183105 80.6155L80.6152 91.7815L91.7822 11.1665L11.1672 -0.000488281Z" fill="#FF329B"/>
<path fill-rule="evenodd" clip-rule="evenodd" d="M19.3074 42.2839C17.2594 57.0649 27.5774 70.7059 42.3444 72.7509C57.1174 74.7979 70.7484 64.4739 72.7954 49.6929L19.3074 42.2839Z" fill="#5C2E5E"/>
<path fill-rule="evenodd" clip-rule="evenodd" d="M35.325 24.0072C34.812 27.7112 31.396 30.2952 27.697 29.7832C23.994 29.2702 21.409 25.8542 21.923 22.1512C22.435 18.4472 25.851 15.8622 29.554 16.3752C33.254 16.8882 35.838 20.3032 35.325 24.0072Z" fill="white"/>
<path fill-rule="evenodd" clip-rule="evenodd" d="M75.5232 29.4496C75.0092 33.1536 71.5942 35.7376 67.8952 35.2256C64.1922 34.7126 61.6072 31.2966 62.1202 27.5936C62.6332 23.8896 66.0482 21.3046 69.7522 21.8176C73.4512 22.3306 76.0362 25.7456 75.5232 29.4496Z" fill="white"/>
</svg>
