<svg width="32" height="32" viewBox="0 0 32 32" fill="none" xmlns="http://www.w3.org/2000/svg">
<mask id="mask0" mask-type="alpha" maskUnits="userSpaceOnUse" x="0" y="0" width="32" height="32">
<path fill-rule="evenodd" clip-rule="evenodd" d="M0 0.163086H31.9211V31.9249H0V0.163086Z" fill="white"/>
</mask>
<g mask="url(#mask0)">
<path fill-rule="evenodd" clip-rule="evenodd" d="M15.9607 31.9249C24.7757 31.9249 31.9213 24.8142 31.9213 16.0437C31.9213 7.27247 24.7757 0.163086 15.9607 0.163086C7.14547 0.163086 0 7.27247 0 16.0437C0 24.8142 7.14547 31.9249 15.9607 31.9249Z" fill="#E0334F"/>
</g>
<path fill-rule="evenodd" clip-rule="evenodd" d="M23.9309 23.9979C23.9309 19.6085 20.3548 16.0498 15.9427 16.0498C11.5314 16.0498 7.95459 19.6085 7.95459 23.9979H23.9309Z" fill="#5C2E5E"/>
<path fill-rule="evenodd" clip-rule="evenodd" d="M11.9517 12.0586C11.9517 13.1573 11.0573 14.0488 9.95312 14.0488C8.84961 14.0488 7.95459 13.1573 7.95459 12.0586C7.95459 10.9598 8.84961 10.0684 9.95312 10.0684C11.0573 10.0684 11.9517 10.9598 11.9517 12.0586Z" fill="#FFE8F5"/>
<path fill-rule="evenodd" clip-rule="evenodd" d="M23.9307 12.0586C23.9307 13.1573 23.0361 14.0488 21.9321 14.0488C20.8286 14.0488 19.9336 13.1573 19.9336 12.0586C19.9336 10.9598 20.8286 10.0684 21.9321 10.0684C23.0361 10.0684 23.9307 10.9598 23.9307 12.0586Z" fill="#FFE8F5"/>
</svg>
