<svg width="140" height="57" viewBox="0 0 140 57" fill="none" xmlns="http://www.w3.org/2000/svg">
<path fill-rule="evenodd" clip-rule="evenodd" d="M46.9876 27.8159C47.1247 26.1385 46.5842 24.606 45.4651 23.5033C45.2618 23.3044 45.0425 23.1249 44.808 22.9674L42.4487 34.3145C43.1977 33.8905 43.9012 33.3655 44.5294 32.7464C45.9738 31.3217 46.845 29.5723 46.9876 27.8159Z" fill="#16181D"/>
<path fill-rule="evenodd" clip-rule="evenodd" d="M1.45399 44.2722L3.05176e-05 51.2641H4.27295C3.66803 50.1864 3.13166 49.0685 2.66382 47.9188C2.18111 46.7306 1.77774 45.516 1.45399 44.2722Z" fill="#16181D"/>
<path fill-rule="evenodd" clip-rule="evenodd" d="M46.683 35.2835C49.4223 32.5822 50.9311 29.4757 50.9311 26.534C50.9311 24.2693 50.0613 22.2158 48.4166 20.5937C47.6321 19.8212 46.7034 19.238 45.6624 18.8525L45.1342 21.3978C45.6543 21.6784 46.1288 22.0251 46.5459 22.4356C47.9861 23.8573 48.6841 25.8112 48.5126 27.9367C48.3414 30.048 47.3098 32.1373 45.6102 33.8121C44.5789 34.8316 43.351 35.6387 42.0603 36.1887L41.5651 38.568C43.3758 37.902 45.1438 36.8008 46.683 35.2835Z" fill="#16181D"/>
<path fill-rule="evenodd" clip-rule="evenodd" d="M65.3579 16.3046H70.5621C69.5734 12.3346 67.6212 8.73098 64.7819 5.72144H56.439C57.9082 6.54764 59.2469 7.55366 60.4474 8.73362C62.6722 10.9296 64.3222 13.4734 65.3579 16.3046Z" fill="#16181D"/>
<path fill-rule="evenodd" clip-rule="evenodd" d="M22.1132 16.3046H26.0554C26.2613 16.0919 26.4754 15.8751 26.6906 15.6621C30.8728 11.5428 36.0715 8.87877 41.4061 8.11455L41.904 5.72144H37.6039C32.9854 7.15701 28.4395 9.82397 24.5548 13.6541C23.6824 14.5138 22.8704 15.3967 22.1132 16.3046Z" fill="#16181D"/>
<path fill-rule="evenodd" clip-rule="evenodd" d="M9.46302 5.72046L7.80869 13.6755C9.67973 10.8913 11.8801 8.23404 14.3887 5.72046H9.46302Z" fill="#16181D"/>
<path fill-rule="evenodd" clip-rule="evenodd" d="M40.0909 14.4565C38.4214 14.82 36.7769 15.4446 35.2171 16.304H39.7082L40.0909 14.4565Z" fill="#16181D"/>
<path fill-rule="evenodd" clip-rule="evenodd" d="M50.3663 39.0559C47.4131 41.9699 43.87 43.935 40.2912 44.7115L39.6656 47.7225C44.2923 46.8243 48.8916 44.391 52.487 40.8452C56.5648 36.827 59.2014 31.9494 59.916 27.1129C60.0461 26.2341 60.1079 25.3732 60.1079 24.5303C60.1079 24.3314 60.1053 24.131 60.0983 23.9336C59.9545 20.0008 58.392 16.4812 55.4908 13.621C53.3238 11.4861 50.5815 10.1804 47.5735 9.65652L46.8794 12.9966C49.1138 13.541 51.1027 14.6258 52.7118 16.2077C58.6484 22.0637 57.6404 31.8856 50.3663 39.0559Z" fill="#16181D"/>
<path fill-rule="evenodd" clip-rule="evenodd" d="M56.5713 12.5528C58.6317 14.5854 60.0871 16.9386 60.895 19.5503C60.9169 19.6249 60.9414 19.701 60.9621 19.7756L61.6837 16.3045H63.7247C62.7576 13.8891 61.2955 11.7057 59.3655 9.79887C57.4945 7.95695 55.2845 6.60129 52.8581 5.72131H48.3918L47.8802 8.17643C48.6056 8.30394 49.3135 8.4723 50.0103 8.68384C52.544 9.45893 54.7525 10.762 56.5713 12.5528Z" fill="#16181D"/>
<path fill-rule="evenodd" clip-rule="evenodd" d="M35.7159 22.8074H32.8957C30.598 25.2908 29.2907 28.2988 29.2907 31.155C29.2907 31.9953 29.3978 32.7939 29.6078 33.5496H32.3317C31.8667 32.6226 31.62 31.5763 31.62 30.4792C31.62 28.0749 32.7406 25.6457 34.7761 23.638C35.078 23.3407 35.3892 23.0633 35.7159 22.8074Z" fill="#16181D"/>
<path fill-rule="evenodd" clip-rule="evenodd" d="M23.0499 22.8079C21.2033 26.0566 20.2254 29.5012 20.2254 32.906C20.2254 33.1228 20.2309 33.3358 20.2391 33.5512H23.7C23.6452 33.0332 23.6148 32.5081 23.6148 31.9734C23.6148 28.871 24.5709 25.6958 26.3241 22.8079H23.0499Z" fill="#16181D"/>
<path fill-rule="evenodd" clip-rule="evenodd" d="M30.8904 22.8074H28.1277C26.2048 25.6651 25.1431 28.8638 25.1431 31.9744C25.1431 32.5118 25.1761 33.0369 25.2361 33.5511H28.0373C27.8547 32.7813 27.7588 31.9786 27.7588 31.155C27.7588 29.4526 28.1455 27.7309 28.9082 26.0438C29.4186 24.9091 30.0825 23.8287 30.8904 22.8074Z" fill="#16181D"/>
<path fill-rule="evenodd" clip-rule="evenodd" d="M40.4231 12.8543L41.0788 9.69553C36.6096 10.4609 32.0406 12.6939 28.2122 16.3046H32.3848C34.8566 14.5441 37.6097 13.3573 40.4231 12.8543Z" fill="#16181D"/>
<path fill-rule="evenodd" clip-rule="evenodd" d="M52.4603 26.5329C52.4603 29.8768 50.7937 33.3644 47.7648 36.3492C45.8611 38.2255 43.5922 39.5771 41.211 40.2817L40.628 43.0785C43.6952 42.2758 46.7212 40.5196 49.2847 37.9878C55.9417 31.4273 56.9499 22.5241 51.6264 17.2733C50.2407 15.9042 48.5138 14.9575 46.5716 14.4739L45.9693 17.37C47.3109 17.8275 48.5126 18.5585 49.4973 19.5272C51.4369 21.4382 52.4603 23.8604 52.4603 26.5329Z" fill="#16181D"/>
<path fill-rule="evenodd" clip-rule="evenodd" d="M39.3328 49.3116L38.9282 51.2643H44.0653C48.2887 49.7635 52.272 47.304 55.5284 44.094C55.6918 43.9336 55.8507 43.7705 56.01 43.6104L57.2843 37.4861C56.2185 39.0392 54.9757 40.5248 53.5684 41.9122C49.6015 45.8255 44.4699 48.4578 39.3328 49.3116Z" fill="#16181D"/>
<path fill-rule="evenodd" clip-rule="evenodd" d="M71.2451 24.5298H66.6017C66.5743 25.1877 66.5195 25.8467 66.4387 26.5113C66.0709 29.4601 65.1696 32.4173 63.7886 35.272H68.5057C69.9063 32.1009 70.8046 28.8316 71.1517 25.5661C71.1943 25.2194 71.2217 24.8768 71.2451 24.5298Z" fill="#16181D"/>
<path fill-rule="evenodd" clip-rule="evenodd" d="M7.3453 35.1973C7.3453 30.7287 8.37547 26.1977 10.4028 21.74C12.4976 17.133 15.5607 12.826 19.5069 8.93615C20.6686 7.78792 21.8799 6.71697 23.1321 5.72064H16.5661C16.3012 5.97215 16.0405 6.22365 15.7797 6.47927C12.1353 10.072 9.15043 13.9768 6.88593 18.1237L2.25076 40.4383C2.57597 42.8388 3.18905 45.1532 4.08476 47.3571C4.63339 48.7139 5.28643 50.0143 6.03689 51.2648H12.8759C11.3493 49.3718 10.1217 47.2839 9.20964 45.0289C7.9721 41.9679 7.3453 38.6587 7.3453 35.1973Z" fill="#16181D"/>
<path fill-rule="evenodd" clip-rule="evenodd" d="M72.6746 25.7245C72.3316 28.9359 71.48 32.1484 70.1657 35.2755H73.694L75.89 24.5307H72.7779C72.7516 24.9285 72.716 25.3252 72.6746 25.7245Z" fill="#16181D"/>
<path fill-rule="evenodd" clip-rule="evenodd" d="M77.3194 8.97163C77.8625 10.3243 78.3084 11.7159 78.6526 13.1432L80.1943 5.72028H75.787C76.3592 6.76772 76.8708 7.85249 77.3194 8.97163Z" fill="#16181D"/>
<path fill-rule="evenodd" clip-rule="evenodd" d="M74.0333 5.72046H66.821C69.4273 8.79934 71.2213 12.3906 72.1363 16.3037H77.7135C77.372 13.9546 76.763 11.6843 75.8976 9.52741C75.368 8.20495 74.7452 6.93656 74.0333 5.72046Z" fill="#16181D"/>
<path fill-rule="evenodd" clip-rule="evenodd" d="M65.071 24.5298H61.6348C61.6348 25.4501 61.5704 26.3844 61.4292 27.3308C61.034 30.0157 60.0835 32.7088 58.6569 35.272H62.0875C63.5785 32.3647 64.5457 29.3414 64.9187 26.3303C64.9943 25.7266 65.0435 25.1269 65.071 24.5298Z" fill="#16181D"/>
<path fill-rule="evenodd" clip-rule="evenodd" d="M20.4025 40.4583H16.7674L18.1707 33.5492H18.7085C18.7015 33.335 18.6948 33.1208 18.6948 32.9052C18.6948 29.4993 19.6013 26.0655 21.316 22.8071H20.4191L21.6383 16.8846C17.9747 21.4681 15.7402 26.6084 15.2531 31.6935C14.6604 37.8606 16.6659 43.5551 20.8948 47.7266C22.4013 49.2092 24.1749 50.3962 26.1719 51.2639H32.413L32.8082 49.397C29.2132 48.8499 26.0483 47.2968 23.5356 44.8205C22.2435 43.5465 21.1914 42.0737 20.4025 40.4583Z" fill="#16181D"/>
<path fill-rule="evenodd" clip-rule="evenodd" d="M13.7306 31.5517C14.0447 28.281 15.0212 25.0076 16.633 21.8197C18.2999 18.524 20.5999 15.4234 23.4711 12.5922C26.2075 9.89349 29.3076 7.69899 32.6805 6.0742C32.9316 5.95256 33.1827 5.83503 33.435 5.72162H25.6423C23.873 6.99971 22.1828 8.42589 20.5862 10.001C16.773 13.7595 13.8158 17.9161 11.8006 22.3574C9.85961 26.6215 8.87494 30.9424 8.87494 35.1968C8.87494 38.4675 9.46469 41.5878 10.6319 44.4731C11.6388 46.9699 13.0612 49.247 14.8719 51.2646H22.9362C21.8045 50.5527 20.7606 49.7253 19.8154 48.7895C15.2572 44.3003 13.0942 38.1734 13.7306 31.5517Z" fill="#16181D"/>
<path fill-rule="evenodd" clip-rule="evenodd" d="M26.6374 40.4583H22.1219C22.7886 41.6673 23.6251 42.7756 24.6171 43.7551C26.9116 46.016 29.8143 47.4281 33.1189 47.9158L33.7894 44.7432C31.3508 44.1973 29.149 42.9939 27.3205 41.1907C27.0793 40.9542 26.8541 40.7112 26.6374 40.4583Z" fill="#16181D"/>
<path fill-rule="evenodd" clip-rule="evenodd" d="M28.7563 40.4583C30.2954 41.8636 32.1087 42.8114 34.1034 43.2662L34.6917 40.4694L34.6958 40.4583H34.6587H28.7563Z" fill="#16181D"/>
<path fill-rule="evenodd" clip-rule="evenodd" d="M54.4163 51.2641L55.4642 46.2358C53.2024 48.2531 50.6549 49.9461 47.9541 51.2641H54.4163Z" fill="#16181D"/>
<path fill-rule="evenodd" clip-rule="evenodd" d="M33.1488 30.4799C33.1488 31.6366 33.4778 32.6838 34.1063 33.5488H35.7441L37.8633 23.1798C37.1528 23.5847 36.4723 24.0974 35.8593 24.7026C34.1104 26.4273 33.1488 28.4764 33.1488 30.4799Z" fill="#16181D"/>
<mask id="mask0" mask-type="alpha" maskUnits="userSpaceOnUse" x="0" y="0" width="140" height="57">
<path fill-rule="evenodd" clip-rule="evenodd" d="M0 56.782H139.936V0H0V56.782Z" fill="white"/>
</mask>
<g mask="url(#mask0)">
<path fill-rule="evenodd" clip-rule="evenodd" d="M83.0847 53.7983H106.821V29.8862H83.0847V53.7983Z" fill="#6AD300"/>
<path fill-rule="evenodd" clip-rule="evenodd" d="M85.8808 23.686L109.394 26.9671L112.651 3.28092L89.1378 0.000183105L85.8808 23.686Z" fill="#FF329B"/>
<path fill-rule="evenodd" clip-rule="evenodd" d="M91.5122 12.4238C90.9149 16.7667 93.9243 20.7746 98.2313 21.3754C102.54 21.9769 106.516 18.9435 107.113 14.6007L91.5122 12.4238Z" fill="#5C2E5E"/>
<path fill-rule="evenodd" clip-rule="evenodd" d="M96.184 7.05378C96.0344 8.14207 95.0381 8.90129 93.9592 8.75085C92.8791 8.60013 92.1252 7.59646 92.2751 6.50846C92.4244 5.42017 93.4208 4.66066 94.5008 4.81139C95.58 4.96212 96.3336 5.96549 96.184 7.05378Z" fill="white"/>
<path fill-rule="evenodd" clip-rule="evenodd" d="M107.908 8.65284C107.759 9.74113 106.763 10.5003 105.684 10.3499C104.604 10.1992 103.85 9.19552 103.999 8.10752C104.149 7.01923 105.145 6.25972 106.225 6.41045C107.304 6.56118 108.058 7.56455 107.908 8.65284Z" fill="white"/>
<path fill-rule="evenodd" clip-rule="evenodd" d="M137.073 53.5753L113.551 56.782L110.368 33.0859L133.89 29.8795L137.073 53.5753Z" fill="#009EEB"/>
<path fill-rule="evenodd" clip-rule="evenodd" d="M119.042 38.0007C119.193 39.0887 118.441 40.0936 117.362 40.2461C116.284 40.3986 115.285 39.6411 115.134 38.5546C114.982 37.4666 115.734 36.462 116.812 36.3081C117.892 36.155 118.89 36.913 119.042 38.0007Z" fill="white"/>
<path fill-rule="evenodd" clip-rule="evenodd" d="M130.763 36.3413C130.914 37.4293 130.162 38.4338 129.083 38.5866C128.005 38.7391 127.006 37.9816 126.855 36.8951C126.703 35.8071 127.455 34.8011 128.534 34.6483C129.614 34.4955 130.611 35.2533 130.763 36.3413Z" fill="white"/>
<path fill-rule="evenodd" clip-rule="evenodd" d="M127.672 42.8016C127.974 44.9691 126.471 46.9799 124.321 47.284C122.171 47.5884 120.176 46.0726 119.873 43.9052L115.959 44.4599C116.565 48.8098 120.556 51.8396 124.871 51.2291C129.187 50.6171 132.193 46.5971 131.587 42.2472L127.672 42.8016Z" fill="#003C67"/>
<path fill-rule="evenodd" clip-rule="evenodd" d="M102.865 41.8424L94.9529 49.8127L87.0406 41.8421L94.9526 33.8718L102.865 41.8424Z" fill="#347222"/>
<path fill-rule="evenodd" clip-rule="evenodd" d="M116.199 26.6957H139.936V2.7836H116.199V26.6957Z" fill="#F28529"/>
<path fill-rule="evenodd" clip-rule="evenodd" d="M134.799 14.7608C134.799 18.5028 131.787 21.5365 128.072 21.5365C124.358 21.5365 121.346 18.5028 121.346 14.7608C121.346 11.0188 124.358 7.98486 128.072 7.98486C131.787 7.98486 134.799 11.0188 134.799 14.7608Z" fill="#FFCC00"/>
</g>
</svg>
